<svg width="1374" height="156" viewBox="0 0 1374 156" fill="none" xmlns="http://www.w3.org/2000/svg">
<rect width="1376" height="155.19" fill="#0C2F55"/>
<g clip-path="url(#clip0_200_3440)">
<g clip-path="url(#clip1_200_3440)">
<mask id="mask0_200_3440" style="mask-type:luminance" maskUnits="userSpaceOnUse" x="0" y="-203" width="1440" height="561">
<path d="M1440 -202.404H0V357.596H1440V-202.404Z" fill="white"/>
</mask>
<g mask="url(#mask0_200_3440)">
<path d="M1440 -202.404H0V357.596H1440V-202.404Z" fill="#003A68"/>
<path d="M-6.10352e-05 307.3C96.6609 305.381 184.185 262.479 269.331 216.684C360.89 167.44 466.29 124.775 512.507 31.6506C559.085 -62.2014 535.874 -173.839 513.997 -276.305C493.267 -373.401 453.98 -464.429 390.325 -540.622C325.849 -617.798 243.897 -677.037 149.726 -712.324C50.491 -749.509 -54.9041 -761.543 -159.843 -746.777C-277.174 -730.267 -403.233 -708.377 -485.351 -622.962C-568.692 -536.274 -600.884 -408.953 -600.233 -288.703C-599.628 -176.964 -541.277 -76.9834 -481.883 17.6656C-428.756 102.327 -361.959 176.026 -276.292 227.516C-192.432 277.92 -97.8231 309.242 -6.10352e-05 307.3Z" fill="#002E53"/>
<path d="M1440 944.419C1566.99 953.618 1704.95 1005.25 1814.21 939.873C1923.79 874.305 1961.2 734.417 1996.21 611.61C2027.48 501.975 2036.65 385.63 2003.35 276.599C1972.68 176.225 1892.7 103.841 1818.44 29.6745C1749.18 -39.5025 1679.54 -110.79 1586.14 -140.093C1491.79 -169.693 1392.67 -152.968 1295.55 -134.37C1189.24 -114.013 1082.31 -92.4675 996.046 -27.0915C897.1 47.8985 795.189 139.544 772.964 261.691C750.572 384.755 821.708 502.633 879.473 613.581C934.704 719.662 996.089 827.277 1099.09 888.069C1200.33 947.825 1322.75 935.925 1440 944.419Z" fill="#00467D"/>
</g>
</g>
</g>
<path d="M401.154 134.152C401.154 133.268 401.358 132.475 401.765 131.773C402.181 131.071 402.74 130.525 403.442 130.135C404.153 129.737 404.928 129.537 405.769 129.537C406.731 129.537 407.585 129.776 408.33 130.252C409.084 130.72 409.63 131.388 409.968 132.254H408.187C407.953 131.778 407.628 131.422 407.212 131.188C406.796 130.954 406.315 130.837 405.769 130.837C405.171 130.837 404.638 130.972 404.17 131.24C403.702 131.509 403.334 131.895 403.065 132.397C402.805 132.9 402.675 133.485 402.675 134.152C402.675 134.82 402.805 135.405 403.065 135.907C403.334 136.41 403.702 136.8 404.17 137.077C404.638 137.346 405.171 137.48 405.769 137.48C406.315 137.48 406.796 137.363 407.212 137.129C407.628 136.895 407.953 136.54 408.187 136.063H409.968C409.63 136.93 409.084 137.597 408.33 138.065C407.585 138.533 406.731 138.767 405.769 138.767C404.92 138.767 404.144 138.572 403.442 138.182C402.74 137.784 402.181 137.233 401.765 136.531C401.358 135.829 401.154 135.036 401.154 134.152ZM411.209 135.075C411.209 134.356 411.356 133.719 411.651 133.164C411.954 132.61 412.361 132.181 412.873 131.877C413.393 131.565 413.965 131.409 414.589 131.409C415.152 131.409 415.642 131.522 416.058 131.747C416.482 131.964 416.82 132.237 417.072 132.566V131.526H418.567V138.689H417.072V137.623C416.82 137.961 416.478 138.243 416.045 138.468C415.611 138.694 415.117 138.806 414.563 138.806C413.947 138.806 413.384 138.65 412.873 138.338C412.361 138.018 411.954 137.576 411.651 137.012C411.356 136.44 411.209 135.795 411.209 135.075ZM417.072 135.101C417.072 134.607 416.968 134.178 416.76 133.814C416.56 133.45 416.296 133.173 415.967 132.982C415.637 132.792 415.282 132.696 414.901 132.696C414.519 132.696 414.164 132.792 413.835 132.982C413.505 133.164 413.237 133.437 413.029 133.801C412.829 134.157 412.73 134.581 412.73 135.075C412.73 135.569 412.829 136.003 413.029 136.375C413.237 136.748 413.505 137.034 413.835 137.233C414.173 137.424 414.528 137.519 414.901 137.519C415.282 137.519 415.637 137.424 415.967 137.233C416.296 137.043 416.56 136.765 416.76 136.401C416.968 136.029 417.072 135.595 417.072 135.101ZM421.995 132.566C422.212 132.202 422.498 131.921 422.853 131.721C423.217 131.513 423.646 131.409 424.14 131.409V132.943H423.763C423.183 132.943 422.741 133.091 422.437 133.385C422.143 133.68 421.995 134.191 421.995 134.919V138.689H420.513V131.526H421.995V132.566ZM426.257 130.577C425.988 130.577 425.763 130.486 425.581 130.304C425.399 130.122 425.308 129.897 425.308 129.628C425.308 129.36 425.399 129.134 425.581 128.952C425.763 128.77 425.988 128.679 426.257 128.679C426.517 128.679 426.738 128.77 426.92 128.952C427.102 129.134 427.193 129.36 427.193 129.628C427.193 129.897 427.102 130.122 426.92 130.304C426.738 130.486 426.517 130.577 426.257 130.577ZM426.985 131.526V138.689H425.503V131.526H426.985ZM438.144 129.654V130.863H435.739V138.689H434.257V130.863H431.839V129.654H438.144ZM440.399 130.577C440.13 130.577 439.905 130.486 439.723 130.304C439.541 130.122 439.45 129.897 439.45 129.628C439.45 129.36 439.541 129.134 439.723 128.952C439.905 128.77 440.13 128.679 440.399 128.679C440.659 128.679 440.88 128.77 441.062 128.952C441.244 129.134 441.335 129.36 441.335 129.628C441.335 129.897 441.244 130.122 441.062 130.304C440.88 130.486 440.659 130.577 440.399 130.577ZM441.127 131.526V138.689H439.645V131.526H441.127ZM445.907 135.114L449.209 138.689H447.207L444.555 135.608V138.689H443.073V129.069H444.555V134.659L447.155 131.526H449.209L445.907 135.114ZM456.836 134.932C456.836 135.201 456.819 135.444 456.784 135.66H451.311C451.354 136.232 451.567 136.692 451.948 137.038C452.329 137.385 452.797 137.558 453.352 137.558C454.149 137.558 454.713 137.225 455.042 136.557H456.641C456.424 137.216 456.03 137.758 455.458 138.182C454.895 138.598 454.193 138.806 453.352 138.806C452.667 138.806 452.052 138.655 451.506 138.351C450.969 138.039 450.544 137.606 450.232 137.051C449.929 136.488 449.777 135.838 449.777 135.101C449.777 134.365 449.924 133.719 450.219 133.164C450.522 132.601 450.943 132.168 451.48 131.864C452.026 131.561 452.65 131.409 453.352 131.409C454.028 131.409 454.63 131.557 455.159 131.851C455.688 132.146 456.099 132.562 456.394 133.099C456.689 133.628 456.836 134.239 456.836 134.932ZM455.289 134.464C455.28 133.918 455.085 133.481 454.704 133.151C454.323 132.822 453.85 132.657 453.287 132.657C452.776 132.657 452.338 132.822 451.974 133.151C451.61 133.472 451.393 133.91 451.324 134.464H455.289ZM460.024 132.735V136.7C460.024 136.969 460.084 137.164 460.206 137.285C460.336 137.398 460.552 137.454 460.856 137.454H461.766V138.689H460.596C459.928 138.689 459.417 138.533 459.062 138.221C458.706 137.909 458.529 137.402 458.529 136.7V132.735H457.684V131.526H458.529V129.745H460.024V131.526H461.766V132.735H460.024Z" fill="white"/>
<rect x="419.22" y="87.6895" width="24" height="24" rx="12" fill="#0071CC"/>
<rect x="419.22" y="87.6895" width="24" height="24" rx="12" stroke="white"/>
<path d="M429.319 97.7665V95.6995H432.92V105.189H430.606V97.7665H429.319Z" fill="white"/>
<path d="M560.314 132.345C560.314 132.805 560.205 133.238 559.989 133.645C559.772 134.053 559.425 134.386 558.949 134.646C558.472 134.898 557.861 135.023 557.116 135.023H555.478V138.689H553.996V129.654H557.116C557.809 129.654 558.394 129.776 558.871 130.018C559.356 130.252 559.716 130.573 559.95 130.98C560.192 131.388 560.314 131.843 560.314 132.345ZM557.116 133.814C557.679 133.814 558.099 133.689 558.377 133.437C558.654 133.177 558.793 132.813 558.793 132.345C558.793 131.357 558.234 130.863 557.116 130.863H555.478V133.814H557.116ZM568.292 134.932C568.292 135.201 568.275 135.444 568.24 135.66H562.767C562.81 136.232 563.023 136.692 563.404 137.038C563.785 137.385 564.253 137.558 564.808 137.558C565.605 137.558 566.169 137.225 566.498 136.557H568.097C567.88 137.216 567.486 137.758 566.914 138.182C566.351 138.598 565.649 138.806 564.808 138.806C564.123 138.806 563.508 138.655 562.962 138.351C562.425 138.039 562 137.606 561.688 137.051C561.385 136.488 561.233 135.838 561.233 135.101C561.233 134.365 561.38 133.719 561.675 133.164C561.978 132.601 562.399 132.168 562.936 131.864C563.482 131.561 564.106 131.409 564.808 131.409C565.484 131.409 566.086 131.557 566.615 131.851C567.144 132.146 567.555 132.562 567.85 133.099C568.145 133.628 568.292 134.239 568.292 134.932ZM566.745 134.464C566.736 133.918 566.541 133.481 566.16 133.151C565.779 132.822 565.306 132.657 564.743 132.657C564.232 132.657 563.794 132.822 563.43 133.151C563.066 133.472 562.849 133.91 562.78 134.464H566.745ZM573.364 131.409C573.928 131.409 574.43 131.526 574.872 131.76C575.323 131.994 575.674 132.341 575.925 132.8C576.177 133.26 576.302 133.814 576.302 134.464V138.689H574.833V134.685C574.833 134.044 574.673 133.554 574.352 133.216C574.032 132.87 573.594 132.696 573.039 132.696C572.485 132.696 572.043 132.87 571.713 133.216C571.393 133.554 571.232 134.044 571.232 134.685V138.689H569.75V131.526H571.232V132.345C571.475 132.051 571.783 131.821 572.155 131.656C572.537 131.492 572.94 131.409 573.364 131.409ZM581.079 131.409C581.634 131.409 582.123 131.522 582.548 131.747C582.981 131.964 583.319 132.237 583.562 132.566V131.526H585.057V138.806C585.057 139.465 584.918 140.05 584.641 140.561C584.364 141.081 583.961 141.489 583.432 141.783C582.912 142.078 582.288 142.225 581.56 142.225C580.589 142.225 579.783 141.996 579.142 141.536C578.501 141.086 578.137 140.47 578.05 139.69H579.519C579.632 140.063 579.87 140.362 580.234 140.587C580.607 140.821 581.049 140.938 581.56 140.938C582.158 140.938 582.639 140.756 583.003 140.392C583.376 140.028 583.562 139.5 583.562 138.806V137.61C583.311 137.948 582.968 138.234 582.535 138.468C582.11 138.694 581.625 138.806 581.079 138.806C580.455 138.806 579.883 138.65 579.363 138.338C578.852 138.018 578.444 137.576 578.141 137.012C577.846 136.44 577.699 135.795 577.699 135.075C577.699 134.356 577.846 133.719 578.141 133.164C578.444 132.61 578.852 132.181 579.363 131.877C579.883 131.565 580.455 131.409 581.079 131.409ZM583.562 135.101C583.562 134.607 583.458 134.178 583.25 133.814C583.051 133.45 582.786 133.173 582.457 132.982C582.128 132.792 581.772 132.696 581.391 132.696C581.01 132.696 580.654 132.792 580.325 132.982C579.996 133.164 579.727 133.437 579.519 133.801C579.32 134.157 579.22 134.581 579.22 135.075C579.22 135.569 579.32 136.003 579.519 136.375C579.727 136.748 579.996 137.034 580.325 137.233C580.663 137.424 581.018 137.519 581.391 137.519C581.772 137.519 582.128 137.424 582.457 137.233C582.786 137.043 583.051 136.765 583.25 136.401C583.458 136.029 583.562 135.595 583.562 135.101ZM587.757 130.577C587.489 130.577 587.263 130.486 587.081 130.304C586.899 130.122 586.808 129.897 586.808 129.628C586.808 129.36 586.899 129.134 587.081 128.952C587.263 128.77 587.489 128.679 587.757 128.679C588.017 128.679 588.238 128.77 588.42 128.952C588.602 129.134 588.693 129.36 588.693 129.628C588.693 129.897 588.602 130.122 588.42 130.304C588.238 130.486 588.017 130.577 587.757 130.577ZM588.485 131.526V138.689H587.003V131.526H588.485ZM593.031 138.806C592.468 138.806 591.961 138.707 591.51 138.507C591.068 138.299 590.717 138.022 590.457 137.675C590.197 137.32 590.058 136.926 590.041 136.492H591.575C591.601 136.796 591.744 137.051 592.004 137.259C592.273 137.459 592.606 137.558 593.005 137.558C593.421 137.558 593.742 137.48 593.967 137.324C594.201 137.16 594.318 136.952 594.318 136.7C594.318 136.432 594.188 136.232 593.928 136.102C593.677 135.972 593.274 135.829 592.719 135.673C592.182 135.526 591.744 135.383 591.406 135.244C591.068 135.106 590.773 134.893 590.522 134.607C590.279 134.321 590.158 133.944 590.158 133.476C590.158 133.095 590.271 132.748 590.496 132.436C590.721 132.116 591.042 131.864 591.458 131.682C591.883 131.5 592.368 131.409 592.914 131.409C593.729 131.409 594.383 131.617 594.877 132.033C595.38 132.441 595.648 133 595.683 133.71H594.201C594.175 133.39 594.045 133.134 593.811 132.943C593.577 132.753 593.261 132.657 592.862 132.657C592.472 132.657 592.173 132.731 591.965 132.878C591.757 133.026 591.653 133.221 591.653 133.463C591.653 133.654 591.722 133.814 591.861 133.944C592 134.074 592.169 134.178 592.368 134.256C592.567 134.326 592.862 134.417 593.252 134.529C593.772 134.668 594.197 134.811 594.526 134.958C594.864 135.097 595.154 135.305 595.397 135.582C595.64 135.86 595.765 136.228 595.774 136.687C595.774 137.095 595.661 137.459 595.436 137.779C595.211 138.1 594.89 138.351 594.474 138.533C594.067 138.715 593.586 138.806 593.031 138.806ZM598.129 130.577C597.861 130.577 597.635 130.486 597.453 130.304C597.271 130.122 597.18 129.897 597.18 129.628C597.18 129.36 597.271 129.134 597.453 128.952C597.635 128.77 597.861 128.679 598.129 128.679C598.389 128.679 598.61 128.77 598.792 128.952C598.974 129.134 599.065 129.36 599.065 129.628C599.065 129.897 598.974 130.122 598.792 130.304C598.61 130.486 598.389 130.577 598.129 130.577ZM598.857 131.526V138.689H597.375V131.526H598.857ZM600.309 135.075C600.309 134.356 600.457 133.719 600.751 133.164C601.055 132.61 601.462 132.181 601.973 131.877C602.493 131.565 603.065 131.409 603.689 131.409C604.253 131.409 604.742 131.522 605.158 131.747C605.583 131.964 605.921 132.237 606.172 132.566V131.526H607.667V138.689H606.172V137.623C605.921 137.961 605.579 138.243 605.145 138.468C604.712 138.694 604.218 138.806 603.663 138.806C603.048 138.806 602.485 138.65 601.973 138.338C601.462 138.018 601.055 137.576 600.751 137.012C600.457 136.44 600.309 135.795 600.309 135.075ZM606.172 135.101C606.172 134.607 606.068 134.178 605.86 133.814C605.661 133.45 605.397 133.173 605.067 132.982C604.738 132.792 604.383 132.696 604.001 132.696C603.62 132.696 603.265 132.792 602.935 132.982C602.606 133.164 602.337 133.437 602.129 133.801C601.93 134.157 601.83 134.581 601.83 135.075C601.83 135.569 601.93 136.003 602.129 136.375C602.337 136.748 602.606 137.034 602.935 137.233C603.273 137.424 603.629 137.519 604.001 137.519C604.383 137.519 604.738 137.424 605.067 137.233C605.397 137.043 605.661 136.765 605.86 136.401C606.068 136.029 606.172 135.595 606.172 135.101ZM613.228 131.409C613.791 131.409 614.294 131.526 614.736 131.76C615.186 131.994 615.537 132.341 615.789 132.8C616.04 133.26 616.166 133.814 616.166 134.464V138.689H614.697V134.685C614.697 134.044 614.536 133.554 614.216 133.216C613.895 132.87 613.457 132.696 612.903 132.696C612.348 132.696 611.906 132.87 611.577 133.216C611.256 133.554 611.096 134.044 611.096 134.685V138.689H609.614V131.526H611.096V132.345C611.338 132.051 611.646 131.821 612.019 131.656C612.4 131.492 612.803 131.409 613.228 131.409ZM624.384 129.654C625.346 129.654 626.187 129.841 626.906 130.213C627.634 130.577 628.193 131.106 628.583 131.799C628.982 132.484 629.181 133.286 629.181 134.204C629.181 135.123 628.982 135.92 628.583 136.596C628.193 137.272 627.634 137.792 626.906 138.156C626.187 138.512 625.346 138.689 624.384 138.689H621.433V129.654H624.384ZM624.384 137.48C625.441 137.48 626.252 137.194 626.815 136.622C627.378 136.05 627.66 135.244 627.66 134.204C627.66 133.156 627.378 132.337 626.815 131.747C626.252 131.158 625.441 130.863 624.384 130.863H622.915V137.48H624.384ZM630.156 135.075C630.156 134.356 630.303 133.719 630.598 133.164C630.901 132.61 631.309 132.181 631.82 131.877C632.34 131.565 632.912 131.409 633.536 131.409C634.099 131.409 634.589 131.522 635.005 131.747C635.43 131.964 635.768 132.237 636.019 132.566V131.526H637.514V138.689H636.019V137.623C635.768 137.961 635.425 138.243 634.992 138.468C634.559 138.694 634.065 138.806 633.51 138.806C632.895 138.806 632.331 138.65 631.82 138.338C631.309 138.018 630.901 137.576 630.598 137.012C630.303 136.44 630.156 135.795 630.156 135.075ZM636.019 135.101C636.019 134.607 635.915 134.178 635.707 133.814C635.508 133.45 635.243 133.173 634.914 132.982C634.585 132.792 634.229 132.696 633.848 132.696C633.467 132.696 633.111 132.792 632.782 132.982C632.453 133.164 632.184 133.437 631.976 133.801C631.777 134.157 631.677 134.581 631.677 135.075C631.677 135.569 631.777 136.003 631.976 136.375C632.184 136.748 632.453 137.034 632.782 137.233C633.12 137.424 633.475 137.519 633.848 137.519C634.229 137.519 634.585 137.424 634.914 137.233C635.243 137.043 635.508 136.765 635.707 136.401C635.915 136.029 636.019 135.595 636.019 135.101ZM641.189 132.735V136.7C641.189 136.969 641.25 137.164 641.371 137.285C641.501 137.398 641.718 137.454 642.021 137.454H642.931V138.689H641.761C641.094 138.689 640.583 138.533 640.227 138.221C639.872 137.909 639.694 137.402 639.694 136.7V132.735H638.849V131.526H639.694V129.745H641.189V131.526H642.931V132.735H641.189ZM643.803 135.075C643.803 134.356 643.951 133.719 644.245 133.164C644.549 132.61 644.956 132.181 645.467 131.877C645.987 131.565 646.559 131.409 647.183 131.409C647.747 131.409 648.236 131.522 648.652 131.747C649.077 131.964 649.415 132.237 649.666 132.566V131.526H651.161V138.689H649.666V137.623C649.415 137.961 649.073 138.243 648.639 138.468C648.206 138.694 647.712 138.806 647.157 138.806C646.542 138.806 645.979 138.65 645.467 138.338C644.956 138.018 644.549 137.576 644.245 137.012C643.951 136.44 643.803 135.795 643.803 135.075ZM649.666 135.101C649.666 134.607 649.562 134.178 649.354 133.814C649.155 133.45 648.891 133.173 648.561 132.982C648.232 132.792 647.877 132.696 647.495 132.696C647.114 132.696 646.759 132.792 646.429 132.982C646.1 133.164 645.831 133.437 645.623 133.801C645.424 134.157 645.324 134.581 645.324 135.075C645.324 135.569 645.424 136.003 645.623 136.375C645.831 136.748 646.1 137.034 646.429 137.233C646.767 137.424 647.123 137.519 647.495 137.519C647.877 137.519 648.232 137.424 648.561 137.233C648.891 137.043 649.155 136.765 649.354 136.401C649.562 136.029 649.666 135.595 649.666 135.101Z" fill="#FAFAFA" fill-opacity="0.7"/>
<rect x="444" y="99" width="158" height="3" fill="#0071CC"/>
<rect x="590.39" y="87.6895" width="24" height="24" rx="12" fill="#0071CC"/>
<rect x="590.39" y="87.6895" width="24" height="24" rx="12" stroke="#8191AB"/>
<path d="M599.364 103.408C599.659 103.174 599.793 103.066 599.767 103.083C600.616 102.381 601.284 101.805 601.769 101.354C602.263 100.904 602.679 100.431 603.017 99.9375C603.355 99.4435 603.524 98.9625 603.524 98.4945C603.524 98.1391 603.442 97.8618 603.277 97.6625C603.112 97.4631 602.865 97.3635 602.536 97.3635C602.207 97.3635 601.947 97.4891 601.756 97.7405C601.574 97.9831 601.483 98.3298 601.483 98.7805H599.338C599.355 98.0438 599.511 97.4285 599.806 96.9345C600.109 96.4405 600.504 96.0765 600.989 95.8425C601.483 95.6085 602.029 95.4915 602.627 95.4915C603.658 95.4915 604.434 95.7558 604.954 96.2845C605.483 96.8131 605.747 97.5021 605.747 98.3515C605.747 99.2788 605.431 100.141 604.798 100.938C604.165 101.727 603.359 102.498 602.38 103.252H605.89V105.059H599.364V103.408Z" fill="#8191AB"/>
<path d="M738.298 132.345C738.298 132.805 738.189 133.238 737.973 133.645C737.756 134.053 737.409 134.386 736.933 134.646C736.456 134.898 735.845 135.023 735.1 135.023H733.462V138.689H731.98V129.654H735.1C735.793 129.654 736.378 129.776 736.855 130.018C737.34 130.252 737.7 130.573 737.934 130.98C738.176 131.388 738.298 131.843 738.298 132.345ZM735.1 133.814C735.663 133.814 736.083 133.689 736.361 133.437C736.638 133.177 736.777 132.813 736.777 132.345C736.777 131.357 736.218 130.863 735.1 130.863H733.462V133.814H735.1ZM746.276 134.932C746.276 135.201 746.259 135.444 746.224 135.66H740.751C740.794 136.232 741.007 136.692 741.388 137.038C741.769 137.385 742.237 137.558 742.792 137.558C743.589 137.558 744.153 137.225 744.482 136.557H746.081C745.864 137.216 745.47 137.758 744.898 138.182C744.335 138.598 743.633 138.806 742.792 138.806C742.107 138.806 741.492 138.655 740.946 138.351C740.409 138.039 739.984 137.606 739.672 137.051C739.369 136.488 739.217 135.838 739.217 135.101C739.217 134.365 739.364 133.719 739.659 133.164C739.962 132.601 740.383 132.168 740.92 131.864C741.466 131.561 742.09 131.409 742.792 131.409C743.468 131.409 744.07 131.557 744.599 131.851C745.128 132.146 745.539 132.562 745.834 133.099C746.129 133.628 746.276 134.239 746.276 134.932ZM744.729 134.464C744.72 133.918 744.525 133.481 744.144 133.151C743.763 132.822 743.29 132.657 742.727 132.657C742.216 132.657 741.778 132.822 741.414 133.151C741.05 133.472 740.833 133.91 740.764 134.464H744.729ZM756.406 131.409C756.969 131.409 757.472 131.526 757.914 131.76C758.364 131.994 758.715 132.341 758.967 132.8C759.227 133.26 759.357 133.814 759.357 134.464V138.689H757.888V134.685C757.888 134.044 757.727 133.554 757.407 133.216C757.086 132.87 756.648 132.696 756.094 132.696C755.539 132.696 755.097 132.87 754.768 133.216C754.447 133.554 754.287 134.044 754.287 134.685V138.689H752.818V134.685C752.818 134.044 752.657 133.554 752.337 133.216C752.016 132.87 751.578 132.696 751.024 132.696C750.469 132.696 750.027 132.87 749.698 133.216C749.377 133.554 749.217 134.044 749.217 134.685V138.689H747.735V131.526H749.217V132.345C749.459 132.051 749.767 131.821 750.14 131.656C750.512 131.492 750.911 131.409 751.336 131.409C751.908 131.409 752.419 131.531 752.87 131.773C753.32 132.016 753.667 132.367 753.91 132.826C754.126 132.393 754.464 132.051 754.924 131.799C755.383 131.539 755.877 131.409 756.406 131.409ZM762.724 132.592C762.976 132.246 763.318 131.964 763.751 131.747C764.193 131.522 764.683 131.409 765.22 131.409C765.853 131.409 766.425 131.561 766.936 131.864C767.448 132.168 767.851 132.601 768.145 133.164C768.44 133.719 768.587 134.356 768.587 135.075C768.587 135.795 768.44 136.44 768.145 137.012C767.851 137.576 767.443 138.018 766.923 138.338C766.412 138.65 765.844 138.806 765.22 138.806C764.666 138.806 764.172 138.698 763.738 138.481C763.314 138.265 762.976 137.987 762.724 137.649V138.689H761.242V129.069H762.724V132.592ZM767.079 135.075C767.079 134.581 766.975 134.157 766.767 133.801C766.568 133.437 766.299 133.164 765.961 132.982C765.632 132.792 765.277 132.696 764.895 132.696C764.523 132.696 764.167 132.792 763.829 132.982C763.5 133.173 763.231 133.45 763.023 133.814C762.824 134.178 762.724 134.607 762.724 135.101C762.724 135.595 762.824 136.029 763.023 136.401C763.231 136.765 763.5 137.043 763.829 137.233C764.167 137.424 764.523 137.519 764.895 137.519C765.277 137.519 765.632 137.424 765.961 137.233C766.299 137.034 766.568 136.748 766.767 136.375C766.975 136.003 767.079 135.569 767.079 135.075ZM769.559 135.075C769.559 134.356 769.706 133.719 770.001 133.164C770.304 132.61 770.712 132.181 771.223 131.877C771.743 131.565 772.315 131.409 772.939 131.409C773.502 131.409 773.992 131.522 774.408 131.747C774.833 131.964 775.171 132.237 775.422 132.566V131.526H776.917V138.689H775.422V137.623C775.171 137.961 774.828 138.243 774.395 138.468C773.962 138.694 773.468 138.806 772.913 138.806C772.298 138.806 771.734 138.65 771.223 138.338C770.712 138.018 770.304 137.576 770.001 137.012C769.706 136.44 769.559 135.795 769.559 135.075ZM775.422 135.101C775.422 134.607 775.318 134.178 775.11 133.814C774.911 133.45 774.646 133.173 774.317 132.982C773.988 132.792 773.632 132.696 773.251 132.696C772.87 132.696 772.514 132.792 772.185 132.982C771.856 133.164 771.587 133.437 771.379 133.801C771.18 134.157 771.08 134.581 771.08 135.075C771.08 135.569 771.18 136.003 771.379 136.375C771.587 136.748 771.856 137.034 772.185 137.233C772.523 137.424 772.878 137.519 773.251 137.519C773.632 137.519 773.988 137.424 774.317 137.233C774.646 137.043 774.911 136.765 775.11 136.401C775.318 136.029 775.422 135.595 775.422 135.101ZM785.311 131.526L780.917 142.056H779.383L780.839 138.572L778.018 131.526H779.669L781.684 136.986L783.777 131.526H785.311ZM785.936 135.075C785.936 134.356 786.083 133.719 786.378 133.164C786.681 132.61 787.089 132.181 787.6 131.877C788.12 131.565 788.692 131.409 789.316 131.409C789.879 131.409 790.369 131.522 790.785 131.747C791.21 131.964 791.548 132.237 791.799 132.566V131.526H793.294V138.689H791.799V137.623C791.548 137.961 791.205 138.243 790.772 138.468C790.339 138.694 789.845 138.806 789.29 138.806C788.675 138.806 788.111 138.65 787.6 138.338C787.089 138.018 786.681 137.576 786.378 137.012C786.083 136.44 785.936 135.795 785.936 135.075ZM791.799 135.101C791.799 134.607 791.695 134.178 791.487 133.814C791.288 133.45 791.023 133.173 790.694 132.982C790.365 132.792 790.009 132.696 789.628 132.696C789.247 132.696 788.891 132.792 788.562 132.982C788.233 133.164 787.964 133.437 787.756 133.801C787.557 134.157 787.457 134.581 787.457 135.075C787.457 135.569 787.557 136.003 787.756 136.375C787.964 136.748 788.233 137.034 788.562 137.233C788.9 137.424 789.255 137.519 789.628 137.519C790.009 137.519 790.365 137.424 790.694 137.233C791.023 137.043 791.288 136.765 791.487 136.401C791.695 136.029 791.799 135.595 791.799 135.101ZM796.722 132.566C796.939 132.202 797.225 131.921 797.58 131.721C797.944 131.513 798.373 131.409 798.867 131.409V132.943H798.49C797.91 132.943 797.468 133.091 797.164 133.385C796.87 133.68 796.722 134.191 796.722 134.919V138.689H795.24V131.526H796.722V132.566ZM799.736 135.075C799.736 134.356 799.883 133.719 800.178 133.164C800.481 132.61 800.888 132.181 801.4 131.877C801.92 131.565 802.492 131.409 803.116 131.409C803.679 131.409 804.169 131.522 804.585 131.747C805.009 131.964 805.347 132.237 805.599 132.566V131.526H807.094V138.689H805.599V137.623C805.347 137.961 805.005 138.243 804.572 138.468C804.138 138.694 803.644 138.806 803.09 138.806C802.474 138.806 801.911 138.65 801.4 138.338C800.888 138.018 800.481 137.576 800.178 137.012C799.883 136.44 799.736 135.795 799.736 135.075ZM805.599 135.101C805.599 134.607 805.495 134.178 805.287 133.814C805.087 133.45 804.823 133.173 804.494 132.982C804.164 132.792 803.809 132.696 803.428 132.696C803.046 132.696 802.691 132.792 802.362 132.982C802.032 133.164 801.764 133.437 801.556 133.801C801.356 134.157 801.257 134.581 801.257 135.075C801.257 135.569 801.356 136.003 801.556 136.375C801.764 136.748 802.032 137.034 802.362 137.233C802.7 137.424 803.055 137.519 803.428 137.519C803.809 137.519 804.164 137.424 804.494 137.233C804.823 137.043 805.087 136.765 805.287 136.401C805.495 136.029 805.599 135.595 805.599 135.101ZM812.654 131.409C813.218 131.409 813.72 131.526 814.162 131.76C814.613 131.994 814.964 132.341 815.215 132.8C815.467 133.26 815.592 133.814 815.592 134.464V138.689H814.123V134.685C814.123 134.044 813.963 133.554 813.642 133.216C813.322 132.87 812.884 132.696 812.329 132.696C811.775 132.696 811.333 132.87 811.003 133.216C810.683 133.554 810.522 134.044 810.522 134.685V138.689H809.04V131.526H810.522V132.345C810.765 132.051 811.073 131.821 811.445 131.656C811.827 131.492 812.23 131.409 812.654 131.409Z" fill="#FAFAFA" fill-opacity="0.7"/>
<rect x="614" y="99" width="159" height="3" fill="#0071CC"/>
<rect x="761.58" y="87.6895" width="24" height="24" rx="12" fill="#0071CC"/>
<rect x="761.58" y="87.6895" width="24" height="24" rx="12" stroke="#8191AB"/>
<path d="M770.493 98.3775C770.528 97.4501 770.831 96.7351 771.403 96.2325C771.975 95.7298 772.751 95.4785 773.73 95.4785C774.38 95.4785 774.935 95.5911 775.394 95.8165C775.862 96.0418 776.213 96.3495 776.447 96.7395C776.69 97.1295 776.811 97.5671 776.811 98.0525C776.811 98.6245 776.668 99.0925 776.382 99.4565C776.096 99.8118 775.762 100.054 775.381 100.184V100.236C775.875 100.401 776.265 100.674 776.551 101.055C776.837 101.437 776.98 101.926 776.98 102.524C776.98 103.062 776.854 103.538 776.603 103.954C776.36 104.362 776.001 104.682 775.524 104.916C775.056 105.15 774.497 105.267 773.847 105.267C772.807 105.267 771.975 105.012 771.351 104.5C770.736 103.989 770.411 103.218 770.376 102.186H772.534C772.543 102.568 772.651 102.871 772.859 103.096C773.067 103.313 773.37 103.421 773.769 103.421C774.107 103.421 774.367 103.326 774.549 103.135C774.74 102.936 774.835 102.676 774.835 102.355C774.835 101.939 774.701 101.64 774.432 101.458C774.172 101.268 773.752 101.172 773.171 101.172H772.755V99.3655H773.171C773.613 99.3655 773.968 99.2918 774.237 99.1445C774.514 98.9885 774.653 98.7155 774.653 98.3255C774.653 98.0135 774.566 97.7708 774.393 97.5975C774.22 97.4241 773.981 97.3375 773.678 97.3375C773.349 97.3375 773.102 97.4371 772.937 97.6365C772.781 97.8358 772.69 98.0828 772.664 98.3775H770.493Z" fill="#8191AB"/>
<path d="M904.379 130.85V133.502H907.499V134.711H904.379V137.48H907.889V138.689H902.897V129.641H907.889V130.85H904.379ZM915.213 133.359V134.607H909.87V133.359H915.213ZM923.156 129.654V130.863H920.751V138.689H919.269V130.863H916.851V129.654H923.156ZM925.411 130.577C925.142 130.577 924.917 130.486 924.735 130.304C924.553 130.122 924.462 129.897 924.462 129.628C924.462 129.36 924.553 129.134 924.735 128.952C924.917 128.77 925.142 128.679 925.411 128.679C925.671 128.679 925.892 128.77 926.074 128.952C926.256 129.134 926.347 129.36 926.347 129.628C926.347 129.897 926.256 130.122 926.074 130.304C925.892 130.486 925.671 130.577 925.411 130.577ZM926.139 131.526V138.689H924.657V131.526H926.139ZM930.919 135.114L934.221 138.689H932.219L929.567 135.608V138.689H928.085V129.069H929.567V134.659L932.167 131.526H934.221L930.919 135.114ZM941.848 134.932C941.848 135.201 941.83 135.444 941.796 135.66H936.323C936.366 136.232 936.578 136.692 936.96 137.038C937.341 137.385 937.809 137.558 938.364 137.558C939.161 137.558 939.724 137.225 940.054 136.557H941.653C941.436 137.216 941.042 137.758 940.47 138.182C939.906 138.598 939.204 138.806 938.364 138.806C937.679 138.806 937.064 138.655 936.518 138.351C935.98 138.039 935.556 137.606 935.244 137.051C934.94 136.488 934.789 135.838 934.789 135.101C934.789 134.365 934.936 133.719 935.231 133.164C935.534 132.601 935.954 132.168 936.492 131.864C937.038 131.561 937.662 131.409 938.364 131.409C939.04 131.409 939.642 131.557 940.171 131.851C940.699 132.146 941.111 132.562 941.406 133.099C941.7 133.628 941.848 134.239 941.848 134.932ZM940.301 134.464C940.292 133.918 940.097 133.481 939.716 133.151C939.334 132.822 938.862 132.657 938.299 132.657C937.787 132.657 937.35 132.822 936.986 133.151C936.622 133.472 936.405 133.91 936.336 134.464H940.301ZM945.035 132.735V136.7C945.035 136.969 945.096 137.164 945.217 137.285C945.347 137.398 945.564 137.454 945.867 137.454H946.777V138.689H945.607C944.94 138.689 944.429 138.533 944.073 138.221C943.718 137.909 943.54 137.402 943.54 136.7V132.735H942.695V131.526H943.54V129.745H945.035V131.526H946.777V132.735H945.035ZM957.357 129.654V130.863H954.952V138.689H953.47V130.863H951.052V129.654H957.357ZM965.423 134.932C965.423 135.201 965.406 135.444 965.371 135.66H959.898C959.941 136.232 960.154 136.692 960.535 137.038C960.916 137.385 961.384 137.558 961.939 137.558C962.736 137.558 963.3 137.225 963.629 136.557H965.228C965.011 137.216 964.617 137.758 964.045 138.182C963.482 138.598 962.78 138.806 961.939 138.806C961.254 138.806 960.639 138.655 960.093 138.351C959.556 138.039 959.131 137.606 958.819 137.051C958.516 136.488 958.364 135.838 958.364 135.101C958.364 134.365 958.511 133.719 958.806 133.164C959.109 132.601 959.53 132.168 960.067 131.864C960.613 131.561 961.237 131.409 961.939 131.409C962.615 131.409 963.217 131.557 963.746 131.851C964.275 132.146 964.686 132.562 964.981 133.099C965.276 133.628 965.423 134.239 965.423 134.932ZM963.876 134.464C963.867 133.918 963.672 133.481 963.291 133.151C962.91 132.822 962.437 132.657 961.874 132.657C961.363 132.657 960.925 132.822 960.561 133.151C960.197 133.472 959.98 133.91 959.911 134.464H963.876ZM968.363 132.566C968.58 132.202 968.866 131.921 969.221 131.721C969.585 131.513 970.014 131.409 970.508 131.409V132.943H970.131C969.551 132.943 969.109 133.091 968.805 133.385C968.511 133.68 968.363 134.191 968.363 134.919V138.689H966.881V131.526H968.363V132.566ZM973.353 132.592C973.604 132.246 973.946 131.964 974.38 131.747C974.822 131.522 975.311 131.409 975.849 131.409C976.481 131.409 977.053 131.561 977.565 131.864C978.076 132.168 978.479 132.601 978.774 133.164C979.068 133.719 979.216 134.356 979.216 135.075C979.216 135.795 979.068 136.44 978.774 137.012C978.479 137.576 978.072 138.018 977.552 138.338C977.04 138.65 976.473 138.806 975.849 138.806C975.294 138.806 974.8 138.698 974.367 138.481C973.942 138.265 973.604 137.987 973.353 137.649V138.689H971.871V129.069H973.353V132.592ZM977.708 135.075C977.708 134.581 977.604 134.157 977.396 133.801C977.196 133.437 976.928 133.164 976.59 132.982C976.26 132.792 975.905 132.696 975.524 132.696C975.151 132.696 974.796 132.792 974.458 132.982C974.128 133.173 973.86 133.45 973.652 133.814C973.452 134.178 973.353 134.607 973.353 135.101C973.353 135.595 973.452 136.029 973.652 136.401C973.86 136.765 974.128 137.043 974.458 137.233C974.796 137.424 975.151 137.519 975.524 137.519C975.905 137.519 976.26 137.424 976.59 137.233C976.928 137.034 977.196 136.748 977.396 136.375C977.604 136.003 977.708 135.569 977.708 135.075ZM981.435 130.577C981.167 130.577 980.941 130.486 980.759 130.304C980.577 130.122 980.486 129.897 980.486 129.628C980.486 129.36 980.577 129.134 980.759 128.952C980.941 128.77 981.167 128.679 981.435 128.679C981.695 128.679 981.916 128.77 982.098 128.952C982.28 129.134 982.371 129.36 982.371 129.628C982.371 129.897 982.28 130.122 982.098 130.304C981.916 130.486 981.695 130.577 981.435 130.577ZM982.163 131.526V138.689H980.681V131.526H982.163ZM985.838 132.735V136.7C985.838 136.969 985.899 137.164 986.02 137.285C986.15 137.398 986.367 137.454 986.67 137.454H987.58V138.689H986.41C985.743 138.689 985.231 138.533 984.876 138.221C984.521 137.909 984.343 137.402 984.343 136.7V132.735H983.498V131.526H984.343V129.745H985.838V131.526H987.58V132.735H985.838Z" fill="#FAFAFA" fill-opacity="0.7"/>
<rect x="786" y="99" width="159" height="3" fill="#CFD8DC"/>
<rect x="932.78" y="87.6895" width="24" height="24" rx="12" fill="#E4E5E5"/>
<rect x="932.78" y="87.6895" width="24" height="24" rx="12" stroke="#8191AB"/>
<path d="M941.221 103.499V101.705L945.329 95.8295H947.812V101.575H948.878V103.499H947.812V105.189H945.589V103.499H941.221ZM945.745 98.2735L943.561 101.575H945.745V98.2735Z" fill="#8191AB"/>
<defs>
<clipPath id="clip0_200_3440">
<rect width="1440" height="155.19" fill="white"/>
</clipPath>
<clipPath id="clip1_200_3440">
<rect width="1440" height="560" fill="white" transform="translate(0 -202.404)"/>
</clipPath>
</defs>
</svg>
